<svg width="732" height="832" viewBox="0 0 732 832" fill="none" xmlns="http://www.w3.org/2000/svg">
<g filter="url(#filter0_d_1302_783)">
<rect width="700" height="800" transform="translate(16)" fill="white"/>
<path d="M178.025 377H175.205V361.916H167.177V377H164.357V359.72H178.025V377ZM187.498 368.528C188.122 368.528 188.67 368.448 189.142 368.288C189.622 368.128 190.018 367.904 190.33 367.616C190.65 367.32 190.89 366.964 191.05 366.548C191.21 366.132 191.29 365.668 191.29 365.156C191.29 364.652 191.21 364.2 191.05 363.8C190.898 363.4 190.666 363.06 190.354 362.78C190.042 362.5 189.646 362.288 189.166 362.144C188.694 361.992 188.138 361.916 187.498 361.916H184.93V368.528H187.498ZM187.498 359.72C188.626 359.72 189.602 359.852 190.426 360.116C191.258 360.38 191.942 360.752 192.478 361.232C193.022 361.704 193.426 362.276 193.69 362.948C193.954 363.612 194.086 364.348 194.086 365.156C194.086 365.98 193.946 366.736 193.666 367.424C193.386 368.104 192.97 368.692 192.418 369.188C191.866 369.676 191.178 370.06 190.354 370.34C189.538 370.612 188.586 370.748 187.498 370.748H184.93V377H182.122V359.72H187.498ZM213.007 368.36C213.007 369.64 212.799 370.82 212.383 371.9C211.967 372.98 211.379 373.912 210.619 374.696C209.867 375.472 208.959 376.08 207.895 376.52C206.839 376.96 205.663 377.18 204.367 377.18C203.079 377.18 201.903 376.96 200.839 376.52C199.783 376.08 198.875 375.472 198.115 374.696C197.355 373.912 196.767 372.98 196.351 371.9C195.935 370.82 195.727 369.64 195.727 368.36C195.727 367.08 195.935 365.9 196.351 364.82C196.767 363.74 197.355 362.808 198.115 362.024C198.875 361.24 199.783 360.628 200.839 360.188C201.903 359.748 203.079 359.528 204.367 359.528C205.663 359.528 206.839 359.748 207.895 360.188C208.959 360.628 209.867 361.24 210.619 362.024C211.379 362.808 211.967 363.74 212.383 364.82C212.799 365.9 213.007 367.08 213.007 368.36ZM210.139 368.36C210.139 367.368 210.003 366.476 209.731 365.684C209.467 364.892 209.083 364.22 208.579 363.668C208.083 363.116 207.479 362.692 206.767 362.396C206.055 362.1 205.255 361.952 204.367 361.952C203.487 361.952 202.691 362.1 201.979 362.396C201.267 362.692 200.659 363.116 200.155 363.668C199.651 364.22 199.263 364.892 198.991 365.684C198.719 366.476 198.583 367.368 198.583 368.36C198.583 369.36 198.719 370.256 198.991 371.048C199.263 371.84 199.651 372.512 200.155 373.064C200.659 373.608 201.267 374.028 201.979 374.324C202.691 374.612 203.487 374.756 204.367 374.756C205.255 374.756 206.055 374.612 206.767 374.324C207.479 374.028 208.083 373.608 208.579 373.064C209.083 372.512 209.467 371.84 209.731 371.048C210.003 370.256 210.139 369.36 210.139 368.36ZM228.083 373.148C228.235 373.148 228.367 373.208 228.479 373.328L229.595 374.54C228.891 375.388 228.027 376.044 227.003 376.508C225.979 376.964 224.755 377.192 223.331 377.192C222.067 377.192 220.923 376.976 219.899 376.544C218.883 376.104 218.015 375.496 217.295 374.72C216.575 373.936 216.019 373.004 215.627 371.924C215.243 370.844 215.051 369.656 215.051 368.36C215.051 367.064 215.255 365.876 215.663 364.796C216.079 363.708 216.659 362.776 217.403 362C218.155 361.216 219.051 360.608 220.091 360.176C221.139 359.744 222.291 359.528 223.547 359.528C224.795 359.528 225.895 359.732 226.847 360.14C227.807 360.54 228.639 361.076 229.343 361.748L228.419 363.056C228.355 363.144 228.279 363.22 228.191 363.284C228.103 363.348 227.983 363.38 227.831 363.38C227.671 363.38 227.487 363.308 227.279 363.164C227.079 363.012 226.819 362.848 226.499 362.672C226.187 362.488 225.791 362.324 225.311 362.18C224.839 362.028 224.247 361.952 223.535 361.952C222.711 361.952 221.955 362.096 221.267 362.384C220.579 362.672 219.987 363.092 219.491 363.644C218.995 364.196 218.607 364.868 218.327 365.66C218.055 366.452 217.919 367.352 217.919 368.36C217.919 369.376 218.063 370.284 218.351 371.084C218.639 371.876 219.035 372.548 219.539 373.1C220.043 373.644 220.635 374.06 221.315 374.348C221.995 374.636 222.727 374.78 223.511 374.78C223.991 374.78 224.419 374.756 224.795 374.708C225.179 374.652 225.531 374.568 225.851 374.456C226.171 374.336 226.471 374.188 226.751 374.012C227.039 373.836 227.323 373.62 227.603 373.364C227.763 373.22 227.923 373.148 228.083 373.148ZM243.913 362.06H238.525V377H235.729V362.06H230.329V359.72H243.913V362.06ZM260.622 359.72V377H257.814V365.528C257.814 365.144 257.822 364.744 257.838 364.328C257.862 363.912 257.906 363.464 257.97 362.984C257.818 363.4 257.654 363.788 257.478 364.148C257.31 364.5 257.142 364.812 256.974 365.084L249.654 376.124C249.59 376.228 249.514 376.332 249.426 376.436C249.346 376.54 249.25 376.636 249.138 376.724C249.034 376.804 248.922 376.872 248.802 376.928C248.682 376.976 248.554 377 248.418 377H246.318V359.72H249.138V371.18C249.138 371.564 249.126 371.968 249.102 372.392C249.086 372.808 249.046 373.248 248.982 373.712C249.134 373.304 249.294 372.924 249.462 372.572C249.638 372.212 249.806 371.9 249.966 371.636L257.286 360.596C257.35 360.492 257.422 360.388 257.502 360.284C257.59 360.18 257.686 360.088 257.79 360.008C257.902 359.92 258.018 359.852 258.138 359.804C258.258 359.748 258.386 359.72 258.522 359.72H260.622ZM276.632 362.06H271.244V377H268.448V362.06H263.048V359.72H276.632V362.06ZM289.824 374.732L289.812 377H279.036V359.72H289.812V361.988H281.856V367.196H288.216V369.392H281.856V374.732H289.824ZM295.349 359.72V366.584C295.349 367.304 295.317 368.012 295.253 368.708C295.189 369.396 295.105 370.14 295.001 370.94H293.261C293.149 370.14 293.061 369.396 292.997 368.708C292.941 368.012 292.913 367.304 292.913 366.584V359.72H295.349ZM292.421 375.512C292.421 375.28 292.461 375.064 292.541 374.864C292.629 374.656 292.749 374.476 292.901 374.324C293.053 374.172 293.229 374.052 293.429 373.964C293.629 373.876 293.849 373.832 294.089 373.832C294.321 373.832 294.537 373.876 294.737 373.964C294.945 374.052 295.121 374.172 295.265 374.324C295.417 374.476 295.537 374.656 295.625 374.864C295.713 375.064 295.757 375.28 295.757 375.512C295.757 375.752 295.713 375.972 295.625 376.172C295.537 376.372 295.417 376.548 295.265 376.7C295.121 376.852 294.945 376.968 294.737 377.048C294.537 377.136 294.321 377.18 294.089 377.18C293.849 377.18 293.629 377.136 293.429 377.048C293.229 376.968 293.053 376.852 292.901 376.7C292.749 376.548 292.629 376.372 292.541 376.172C292.461 375.972 292.421 375.752 292.421 375.512ZM319.754 359.72V377H316.946V369.308H308.27V377H305.45V359.72H308.27V367.28H316.946V359.72H319.754ZM340.108 368.36C340.108 369.64 339.9 370.82 339.484 371.9C339.068 372.98 338.48 373.912 337.72 374.696C336.968 375.472 336.06 376.08 334.996 376.52C333.94 376.96 332.764 377.18 331.468 377.18C330.18 377.18 329.004 376.96 327.94 376.52C326.884 376.08 325.976 375.472 325.216 374.696C324.456 373.912 323.868 372.98 323.452 371.9C323.036 370.82 322.828 369.64 322.828 368.36C322.828 367.08 323.036 365.9 323.452 364.82C323.868 363.74 324.456 362.808 325.216 362.024C325.976 361.24 326.884 360.628 327.94 360.188C329.004 359.748 330.18 359.528 331.468 359.528C332.764 359.528 333.94 359.748 334.996 360.188C336.06 360.628 336.968 361.24 337.72 362.024C338.48 362.808 339.068 363.74 339.484 364.82C339.9 365.9 340.108 367.08 340.108 368.36ZM337.24 368.36C337.24 367.368 337.104 366.476 336.832 365.684C336.568 364.892 336.184 364.22 335.68 363.668C335.184 363.116 334.58 362.692 333.868 362.396C333.156 362.1 332.356 361.952 331.468 361.952C330.588 361.952 329.792 362.1 329.08 362.396C328.368 362.692 327.76 363.116 327.256 363.668C326.752 364.22 326.364 364.892 326.092 365.684C325.82 366.476 325.684 367.368 325.684 368.36C325.684 369.36 325.82 370.256 326.092 371.048C326.364 371.84 326.752 372.512 327.256 373.064C327.76 373.608 328.368 374.028 329.08 374.324C329.792 374.612 330.588 374.756 331.468 374.756C332.356 374.756 333.156 374.612 333.868 374.324C334.58 374.028 335.184 373.608 335.68 373.064C336.184 372.512 336.568 371.84 336.832 371.048C337.104 370.256 337.24 369.36 337.24 368.36ZM360.117 374.804V361.916H354.933C354.837 363.732 354.705 365.336 354.537 366.728C354.369 368.112 354.169 369.324 353.937 370.364C353.713 371.396 353.461 372.276 353.181 373.004C352.909 373.724 352.613 374.324 352.293 374.804H360.117ZM365.685 374.804V380.336C365.685 380.576 365.601 380.772 365.433 380.924C365.273 381.076 365.061 381.152 364.797 381.152H363.117V377H349.845V380.336C349.845 380.576 349.761 380.772 349.593 380.924C349.433 381.076 349.221 381.152 348.957 381.152H347.277V374.804H349.101C349.333 374.684 349.565 374.492 349.797 374.228C350.037 373.964 350.265 373.588 350.481 373.1C350.697 372.612 350.901 371.996 351.093 371.252C351.293 370.508 351.473 369.6 351.633 368.528C351.793 367.448 351.929 366.184 352.041 364.736C352.153 363.288 352.237 361.616 352.293 359.72H362.937V374.804H365.685ZM381.846 377H379.026V361.916H373.842C373.73 364.1 373.574 365.996 373.374 367.604C373.174 369.212 372.934 370.58 372.654 371.708C372.382 372.836 372.07 373.756 371.718 374.468C371.374 375.18 370.99 375.736 370.566 376.136C370.15 376.536 369.702 376.808 369.222 376.952C368.742 377.096 368.234 377.168 367.698 377.168C366.69 377.168 366.186 376.988 366.186 376.628V374.852H367.074C367.37 374.852 367.666 374.8 367.962 374.696C368.266 374.584 368.558 374.352 368.838 374C369.118 373.648 369.386 373.14 369.642 372.476C369.898 371.804 370.13 370.908 370.338 369.788C370.546 368.668 370.722 367.288 370.866 365.648C371.018 364 371.13 362.024 371.202 359.72H381.846V377ZM395.186 367.508V361.94H392.042C391.41 361.94 390.874 362.008 390.434 362.144C390.002 362.28 389.65 362.472 389.378 362.72C389.106 362.968 388.906 363.26 388.778 363.596C388.658 363.932 388.598 364.3 388.598 364.7C388.598 365.132 388.658 365.524 388.778 365.876C388.906 366.22 389.106 366.512 389.378 366.752C389.65 366.992 390.002 367.18 390.434 367.316C390.874 367.444 391.41 367.508 392.042 367.508H395.186ZM397.994 377H395.186V369.728H393.146C392.938 369.728 392.742 369.748 392.558 369.788C392.382 369.82 392.206 369.88 392.03 369.968C391.862 370.056 391.694 370.184 391.526 370.352C391.366 370.512 391.202 370.716 391.034 370.964L387.65 376.004C387.474 376.308 387.242 376.552 386.954 376.736C386.666 376.912 386.318 377 385.91 377H383.798L387.998 370.82C388.478 370.092 389.066 369.568 389.762 369.248C389.098 369.096 388.518 368.88 388.022 368.6C387.534 368.32 387.126 367.984 386.798 367.592C386.478 367.2 386.238 366.764 386.078 366.284C385.918 365.796 385.838 365.276 385.838 364.724C385.838 363.98 385.974 363.304 386.246 362.696C386.526 362.08 386.93 361.552 387.458 361.112C387.994 360.672 388.646 360.332 389.414 360.092C390.182 359.844 391.058 359.72 392.042 359.72H397.994V377ZM426.467 359.72V377H423.995V365.156C423.995 364.964 423.999 364.756 424.007 364.532C424.023 364.3 424.043 364.068 424.067 363.836L418.511 374.096C418.295 374.52 417.963 374.732 417.515 374.732H417.119C416.663 374.732 416.331 374.52 416.123 374.096L410.483 363.812C410.507 364.044 410.523 364.276 410.531 364.508C410.547 364.74 410.555 364.956 410.555 365.156V377H408.083V359.72H410.183C410.431 359.72 410.623 359.744 410.759 359.792C410.895 359.832 411.019 359.964 411.131 360.188L416.675 370.232C416.795 370.464 416.907 370.704 417.011 370.952C417.123 371.192 417.223 371.44 417.311 371.696C417.407 371.44 417.507 371.188 417.611 370.94C417.723 370.684 417.839 370.44 417.959 370.208L423.419 360.188C423.531 359.964 423.655 359.832 423.791 359.792C423.927 359.744 424.119 359.72 424.367 359.72H426.467ZM446.796 368.36C446.796 369.64 446.588 370.82 446.172 371.9C445.756 372.98 445.168 373.912 444.408 374.696C443.656 375.472 442.748 376.08 441.684 376.52C440.628 376.96 439.452 377.18 438.156 377.18C436.868 377.18 435.692 376.96 434.628 376.52C433.572 376.08 432.664 375.472 431.904 374.696C431.144 373.912 430.556 372.98 430.14 371.9C429.724 370.82 429.516 369.64 429.516 368.36C429.516 367.08 429.724 365.9 430.14 364.82C430.556 363.74 431.144 362.808 431.904 362.024C432.664 361.24 433.572 360.628 434.628 360.188C435.692 359.748 436.868 359.528 438.156 359.528C439.452 359.528 440.628 359.748 441.684 360.188C442.748 360.628 443.656 361.24 444.408 362.024C445.168 362.808 445.756 363.74 446.172 364.82C446.588 365.9 446.796 367.08 446.796 368.36ZM443.928 368.36C443.928 367.368 443.792 366.476 443.52 365.684C443.256 364.892 442.872 364.22 442.368 363.668C441.872 363.116 441.268 362.692 440.556 362.396C439.844 362.1 439.044 361.952 438.156 361.952C437.276 361.952 436.48 362.1 435.768 362.396C435.056 362.692 434.448 363.116 433.944 363.668C433.44 364.22 433.052 364.892 432.78 365.684C432.508 366.476 432.372 367.368 432.372 368.36C432.372 369.36 432.508 370.256 432.78 371.048C433.052 371.84 433.44 372.512 433.944 373.064C434.448 373.608 435.056 374.028 435.768 374.324C436.48 374.612 437.276 374.756 438.156 374.756C439.044 374.756 439.844 374.612 440.556 374.324C441.268 374.028 441.872 373.608 442.368 373.064C442.872 372.512 443.256 371.84 443.52 371.048C443.792 370.256 443.928 369.36 443.928 368.36ZM455.74 374.78C456.372 374.78 456.904 374.712 457.336 374.576C457.776 374.432 458.132 374.236 458.404 373.988C458.676 373.732 458.872 373.436 458.992 373.1C459.12 372.756 459.184 372.384 459.184 371.984C459.184 371.552 459.124 371.164 459.004 370.82C458.884 370.476 458.688 370.188 458.416 369.956C458.144 369.716 457.788 369.532 457.348 369.404C456.916 369.276 456.384 369.212 455.752 369.212H452.68V374.78H455.74ZM455.752 366.992C456.84 366.992 457.772 367.112 458.548 367.352C459.332 367.592 459.976 367.924 460.48 368.348C460.984 368.764 461.352 369.26 461.584 369.836C461.824 370.412 461.944 371.032 461.944 371.696C461.944 372.504 461.804 373.236 461.524 373.892C461.252 374.54 460.852 375.096 460.324 375.56C459.796 376.024 459.144 376.38 458.368 376.628C457.6 376.876 456.724 377 455.74 377H449.872V359.72H461.344V361.916H452.68V366.992H455.752ZM479.176 359.72V377H476.368V365.528C476.368 365.144 476.376 364.744 476.392 364.328C476.416 363.912 476.46 363.464 476.524 362.984C476.372 363.4 476.208 363.788 476.032 364.148C475.864 364.5 475.696 364.812 475.528 365.084L468.208 376.124C468.144 376.228 468.068 376.332 467.98 376.436C467.9 376.54 467.804 376.636 467.692 376.724C467.588 376.804 467.476 376.872 467.356 376.928C467.236 376.976 467.108 377 466.972 377H464.872V359.72H467.692V371.18C467.692 371.564 467.68 371.968 467.656 372.392C467.64 372.808 467.6 373.248 467.536 373.712C467.688 373.304 467.848 372.924 468.016 372.572C468.192 372.212 468.36 371.9 468.52 371.636L475.84 360.596C475.904 360.492 475.976 360.388 476.056 360.284C476.144 360.18 476.24 360.088 476.344 360.008C476.456 359.92 476.572 359.852 476.692 359.804C476.812 359.748 476.94 359.72 477.076 359.72H479.176ZM496.83 377H494.01V361.916H488.826C488.714 364.1 488.558 365.996 488.358 367.604C488.158 369.212 487.918 370.58 487.638 371.708C487.366 372.836 487.054 373.756 486.702 374.468C486.358 375.18 485.974 375.736 485.55 376.136C485.134 376.536 484.686 376.808 484.206 376.952C483.726 377.096 483.218 377.168 482.682 377.168C481.674 377.168 481.17 376.988 481.17 376.628V374.852H482.058C482.354 374.852 482.65 374.8 482.946 374.696C483.25 374.584 483.542 374.352 483.822 374C484.102 373.648 484.37 373.14 484.626 372.476C484.882 371.804 485.114 370.908 485.322 369.788C485.53 368.668 485.706 367.288 485.85 365.648C486.002 364 486.114 362.024 486.186 359.72H496.83V377ZM506.811 374.78C507.443 374.78 507.975 374.712 508.407 374.576C508.847 374.432 509.203 374.236 509.475 373.988C509.747 373.732 509.943 373.436 510.063 373.1C510.191 372.756 510.255 372.384 510.255 371.984C510.255 371.552 510.195 371.164 510.075 370.82C509.955 370.476 509.759 370.188 509.487 369.956C509.215 369.716 508.859 369.532 508.419 369.404C507.987 369.276 507.455 369.212 506.823 369.212H503.751V374.78H506.811ZM506.823 366.992C507.911 366.992 508.843 367.112 509.619 367.352C510.403 367.592 511.047 367.924 511.551 368.348C512.055 368.764 512.423 369.26 512.655 369.836C512.895 370.412 513.015 371.032 513.015 371.696C513.015 372.504 512.875 373.236 512.595 373.892C512.323 374.54 511.923 375.096 511.395 375.56C510.867 376.024 510.215 376.38 509.439 376.628C508.671 376.876 507.795 377 506.811 377H500.943V359.72H503.751V366.992H506.823ZM529.965 359.72V377H527.157V369.308H518.481V377H515.661V359.72H518.481V367.28H527.157V359.72H529.965ZM539.951 374.78C540.583 374.78 541.115 374.712 541.547 374.576C541.987 374.432 542.343 374.236 542.615 373.988C542.887 373.732 543.083 373.436 543.203 373.1C543.331 372.756 543.395 372.384 543.395 371.984C543.395 371.552 543.335 371.164 543.215 370.82C543.095 370.476 542.899 370.188 542.627 369.956C542.355 369.716 541.999 369.532 541.559 369.404C541.127 369.276 540.595 369.212 539.963 369.212H536.891V374.78H539.951ZM539.963 366.992C541.051 366.992 541.983 367.112 542.759 367.352C543.543 367.592 544.187 367.924 544.691 368.348C545.195 368.764 545.563 369.26 545.795 369.836C546.035 370.412 546.155 371.032 546.155 371.696C546.155 372.504 546.015 373.236 545.735 373.892C545.463 374.54 545.063 375.096 544.535 375.56C544.007 376.024 543.355 376.38 542.579 376.628C541.811 376.876 540.935 377 539.951 377H534.083V359.72H536.891V366.992H539.963ZM551.807 377H548.987V359.72H551.807V377ZM569.548 377H566.752C566.56 377 566.404 376.948 566.284 376.844C566.164 376.74 566.068 376.624 565.996 376.496L561.7 369.572C561.668 369.668 561.632 369.76 561.592 369.848C561.56 369.936 561.52 370.02 561.472 370.1L557.32 376.496C557.232 376.624 557.132 376.74 557.02 376.844C556.916 376.948 556.776 377 556.6 377H553.984L559.816 368.12L554.224 359.72H557.008C557.208 359.72 557.352 359.752 557.44 359.816C557.536 359.872 557.62 359.96 557.692 360.08L561.892 366.68C561.932 366.584 561.972 366.488 562.012 366.392C562.052 366.296 562.104 366.196 562.168 366.092L566.08 360.128C566.16 359.992 566.248 359.892 566.344 359.828C566.44 359.756 566.556 359.72 566.692 359.72H569.368L563.728 368L569.548 377ZM304.487 394.06H299.099V409H296.303V394.06H290.903V391.72H304.487V394.06ZM317.68 406.732L317.668 409H306.892V391.72H317.668V393.988H309.712V399.196H316.072V401.392H309.712V406.732H317.68ZM334.256 409H331.436V393.916H326.252C326.14 396.1 325.984 397.996 325.784 399.604C325.584 401.212 325.344 402.58 325.064 403.708C324.792 404.836 324.48 405.756 324.128 406.468C323.784 407.18 323.4 407.736 322.976 408.136C322.56 408.536 322.112 408.808 321.632 408.952C321.152 409.096 320.644 409.168 320.108 409.168C319.1 409.168 318.596 408.988 318.596 408.628V406.852H319.484C319.78 406.852 320.076 406.8 320.372 406.696C320.676 406.584 320.968 406.352 321.248 406C321.528 405.648 321.796 405.14 322.052 404.476C322.308 403.804 322.54 402.908 322.748 401.788C322.956 400.668 323.132 399.288 323.276 397.648C323.428 396 323.54 394.024 323.612 391.72H334.256V409ZM349.156 406.732L349.144 409H338.368V391.72H349.144V393.988H341.188V399.196H347.548V401.392H341.188V406.732H349.156ZM360.536 404.728C361.216 404.72 361.836 404.588 362.396 404.332C362.964 404.076 363.448 403.732 363.848 403.3C364.256 402.868 364.568 402.368 364.784 401.8C365.008 401.224 365.12 400.608 365.12 399.952C365.12 399.304 365.008 398.692 364.784 398.116C364.568 397.54 364.256 397.036 363.848 396.604C363.448 396.172 362.964 395.832 362.396 395.584C361.836 395.328 361.216 395.192 360.536 395.176V404.728ZM357.884 395.176C357.196 395.192 356.568 395.328 356 395.584C355.44 395.832 354.96 396.172 354.56 396.604C354.16 397.036 353.848 397.54 353.624 398.116C353.408 398.692 353.3 399.304 353.3 399.952C353.3 400.608 353.408 401.224 353.624 401.8C353.848 402.368 354.16 402.868 354.56 403.3C354.96 403.732 355.44 404.076 356 404.332C356.568 404.588 357.196 404.72 357.884 404.728V395.176ZM360.536 392.992C361.256 393.016 361.94 393.116 362.588 393.292C363.236 393.468 363.832 393.708 364.376 394.012C364.92 394.316 365.408 394.68 365.84 395.104C366.28 395.528 366.652 395.996 366.956 396.508C367.26 397.012 367.492 397.556 367.652 398.14C367.82 398.724 367.904 399.328 367.904 399.952C367.904 400.896 367.724 401.784 367.364 402.616C367.004 403.448 366.5 404.18 365.852 404.812C365.204 405.436 364.428 405.936 363.524 406.312C362.62 406.688 361.624 406.892 360.536 406.924V409H357.884V406.924C356.796 406.892 355.796 406.688 354.884 406.312C353.98 405.936 353.2 405.436 352.544 404.812C351.896 404.18 351.392 403.448 351.032 402.616C350.672 401.784 350.492 400.896 350.492 399.952C350.492 399.008 350.672 398.12 351.032 397.288C351.4 396.456 351.912 395.728 352.568 395.104C353.224 394.48 354.004 393.98 354.908 393.604C355.812 393.228 356.804 393.024 357.884 392.992V390.964H360.536V392.992ZM387.018 400.36C387.018 401.64 386.81 402.82 386.394 403.9C385.978 404.98 385.39 405.912 384.63 406.696C383.878 407.472 382.97 408.08 381.906 408.52C380.85 408.96 379.674 409.18 378.378 409.18C377.09 409.18 375.914 408.96 374.85 408.52C373.794 408.08 372.886 407.472 372.126 406.696C371.366 405.912 370.778 404.98 370.362 403.9C369.946 402.82 369.738 401.64 369.738 400.36C369.738 399.08 369.946 397.9 370.362 396.82C370.778 395.74 371.366 394.808 372.126 394.024C372.886 393.24 373.794 392.628 374.85 392.188C375.914 391.748 377.09 391.528 378.378 391.528C379.674 391.528 380.85 391.748 381.906 392.188C382.97 392.628 383.878 393.24 384.63 394.024C385.39 394.808 385.978 395.74 386.394 396.82C386.81 397.9 387.018 399.08 387.018 400.36ZM384.15 400.36C384.15 399.368 384.014 398.476 383.742 397.684C383.478 396.892 383.094 396.22 382.59 395.668C382.094 395.116 381.49 394.692 380.778 394.396C380.066 394.1 379.266 393.952 378.378 393.952C377.498 393.952 376.702 394.1 375.99 394.396C375.278 394.692 374.67 395.116 374.166 395.668C373.662 396.22 373.274 396.892 373.002 397.684C372.73 398.476 372.594 399.368 372.594 400.36C372.594 401.36 372.73 402.256 373.002 403.048C373.274 403.84 373.662 404.512 374.166 405.064C374.67 405.608 375.278 406.028 375.99 406.324C376.702 406.612 377.498 406.756 378.378 406.756C379.266 406.756 380.066 406.612 380.778 406.324C381.49 406.028 382.094 405.608 382.59 405.064C383.094 404.512 383.478 403.84 383.742 403.048C384.014 402.256 384.15 401.36 384.15 400.36ZM404.399 391.72V409H401.591V401.308H392.915V409H390.095V391.72H392.915V399.28H401.591V391.72H404.399ZM424.753 400.36C424.753 401.64 424.545 402.82 424.129 403.9C423.713 404.98 423.125 405.912 422.365 406.696C421.613 407.472 420.705 408.08 419.641 408.52C418.585 408.96 417.409 409.18 416.113 409.18C414.825 409.18 413.649 408.96 412.585 408.52C411.529 408.08 410.621 407.472 409.861 406.696C409.101 405.912 408.513 404.98 408.097 403.9C407.681 402.82 407.473 401.64 407.473 400.36C407.473 399.08 407.681 397.9 408.097 396.82C408.513 395.74 409.101 394.808 409.861 394.024C410.621 393.24 411.529 392.628 412.585 392.188C413.649 391.748 414.825 391.528 416.113 391.528C417.409 391.528 418.585 391.748 419.641 392.188C420.705 392.628 421.613 393.24 422.365 394.024C423.125 394.808 423.713 395.74 424.129 396.82C424.545 397.9 424.753 399.08 424.753 400.36ZM421.885 400.36C421.885 399.368 421.749 398.476 421.477 397.684C421.213 396.892 420.829 396.22 420.325 395.668C419.829 395.116 419.225 394.692 418.513 394.396C417.801 394.1 417.001 393.952 416.113 393.952C415.233 393.952 414.437 394.1 413.725 394.396C413.013 394.692 412.405 395.116 411.901 395.668C411.397 396.22 411.009 396.892 410.737 397.684C410.465 398.476 410.329 399.368 410.329 400.36C410.329 401.36 410.465 402.256 410.737 403.048C411.009 403.84 411.397 404.512 411.901 405.064C412.405 405.608 413.013 406.028 413.725 406.324C414.437 406.612 415.233 406.756 416.113 406.756C417.001 406.756 417.801 406.612 418.513 406.324C419.225 406.028 419.829 405.608 420.325 405.064C420.829 404.512 421.213 403.84 421.477 403.048C421.749 402.256 421.885 401.36 421.885 400.36ZM434.117 406.78C434.749 406.78 435.281 406.708 435.713 406.564C436.153 406.412 436.509 406.208 436.781 405.952C437.061 405.696 437.261 405.396 437.381 405.052C437.509 404.7 437.573 404.324 437.573 403.924C437.573 403.108 437.293 402.468 436.733 402.004C436.181 401.532 435.305 401.296 434.105 401.296H430.637V406.78H434.117ZM430.637 393.916V399.316H433.445C434.645 399.316 435.541 399.084 436.133 398.62C436.725 398.156 437.021 397.488 437.021 396.616C437.021 395.664 436.741 394.976 436.181 394.552C435.629 394.128 434.761 393.916 433.577 393.916H430.637ZM433.577 391.72C434.681 391.72 435.625 391.828 436.409 392.044C437.193 392.252 437.837 392.552 438.341 392.944C438.845 393.336 439.213 393.816 439.445 394.384C439.685 394.944 439.805 395.576 439.805 396.28C439.805 396.688 439.741 397.084 439.613 397.468C439.493 397.844 439.301 398.2 439.037 398.536C438.781 398.864 438.457 399.16 438.065 399.424C437.673 399.688 437.209 399.908 436.673 400.084C439.121 400.604 440.345 401.904 440.345 403.984C440.345 404.72 440.205 405.396 439.925 406.012C439.653 406.62 439.253 407.148 438.725 407.596C438.205 408.036 437.561 408.38 436.793 408.628C436.025 408.876 435.149 409 434.165 409H427.829V391.72H433.577ZM139.427 423.72L132.431 438.66C132.199 439.156 131.947 439.568 131.675 439.896C131.411 440.216 131.123 440.472 130.811 440.664C130.507 440.848 130.179 440.976 129.827 441.048C129.475 441.128 129.095 441.168 128.687 441.168C127.687 441.168 127.187 440.988 127.187 440.628V438.852H128.063C128.255 438.852 128.447 438.832 128.639 438.792C128.831 438.752 129.015 438.684 129.191 438.588C129.375 438.484 129.551 438.344 129.719 438.168C129.887 437.984 130.043 437.748 130.187 437.46L130.943 435.9L124.007 423.72H126.635C126.875 423.72 127.067 423.78 127.211 423.9C127.355 424.02 127.479 424.172 127.583 424.356L131.375 431.364C131.703 431.98 131.971 432.628 132.179 433.308C132.267 432.972 132.371 432.644 132.491 432.324C132.619 432.004 132.759 431.68 132.911 431.352L136.175 424.356C136.247 424.196 136.363 424.052 136.523 423.924C136.683 423.788 136.879 423.72 137.111 423.72H139.427ZM161.645 423.72V441H158.837V433.308H150.161V441H147.341V423.72H150.161V431.28H158.837V423.72H161.645ZM174.883 434.52L172.495 428.208C172.407 427.968 172.311 427.692 172.207 427.38C172.103 427.06 172.003 426.716 171.907 426.348C171.819 426.724 171.723 427.072 171.619 427.392C171.523 427.704 171.427 427.98 171.331 428.22L168.955 434.52H174.883ZM180.187 441H178.015C177.775 441 177.575 440.94 177.415 440.82C177.263 440.692 177.151 440.536 177.079 440.352L175.639 436.536H168.187L166.747 440.352C166.683 440.512 166.571 440.66 166.411 440.796C166.251 440.932 166.055 441 165.823 441H163.639L170.491 423.72H173.335L180.187 441ZM193.724 437.148C193.876 437.148 194.008 437.208 194.12 437.328L195.236 438.54C194.532 439.388 193.668 440.044 192.644 440.508C191.62 440.964 190.396 441.192 188.972 441.192C187.708 441.192 186.564 440.976 185.54 440.544C184.524 440.104 183.656 439.496 182.936 438.72C182.216 437.936 181.66 437.004 181.268 435.924C180.884 434.844 180.692 433.656 180.692 432.36C180.692 431.064 180.896 429.876 181.304 428.796C181.72 427.708 182.3 426.776 183.044 426C183.796 425.216 184.692 424.608 185.732 424.176C186.78 423.744 187.932 423.528 189.188 423.528C190.436 423.528 191.536 423.732 192.488 424.14C193.448 424.54 194.28 425.076 194.984 425.748L194.06 427.056C193.996 427.144 193.92 427.22 193.832 427.284C193.744 427.348 193.624 427.38 193.472 427.38C193.312 427.38 193.128 427.308 192.92 427.164C192.72 427.012 192.46 426.848 192.14 426.672C191.828 426.488 191.432 426.324 190.952 426.18C190.48 426.028 189.888 425.952 189.176 425.952C188.352 425.952 187.596 426.096 186.908 426.384C186.22 426.672 185.628 427.092 185.132 427.644C184.636 428.196 184.248 428.868 183.968 429.66C183.696 430.452 183.56 431.352 183.56 432.36C183.56 433.376 183.704 434.284 183.992 435.084C184.28 435.876 184.676 436.548 185.18 437.1C185.684 437.644 186.276 438.06 186.956 438.348C187.636 438.636 188.368 438.78 189.152 438.78C189.632 438.78 190.06 438.756 190.436 438.708C190.82 438.652 191.172 438.568 191.492 438.456C191.812 438.336 192.112 438.188 192.392 438.012C192.68 437.836 192.964 437.62 193.244 437.364C193.404 437.22 193.564 437.148 193.724 437.148ZM214.426 438.732L214.414 441H203.638V423.72H214.414V425.988H206.458V431.196H212.818V433.392H206.458V438.732H214.426ZM229.091 437.148C229.243 437.148 229.375 437.208 229.487 437.328L230.603 438.54C229.899 439.388 229.035 440.044 228.011 440.508C226.987 440.964 225.763 441.192 224.339 441.192C223.075 441.192 221.931 440.976 220.907 440.544C219.891 440.104 219.023 439.496 218.303 438.72C217.583 437.936 217.027 437.004 216.635 435.924C216.251 434.844 216.059 433.656 216.059 432.36C216.059 431.064 216.263 429.876 216.671 428.796C217.087 427.708 217.667 426.776 218.411 426C219.163 425.216 220.059 424.608 221.099 424.176C222.147 423.744 223.299 423.528 224.555 423.528C225.803 423.528 226.903 423.732 227.855 424.14C228.815 424.54 229.647 425.076 230.351 425.748L229.427 427.056C229.363 427.144 229.287 427.22 229.199 427.284C229.111 427.348 228.991 427.38 228.839 427.38C228.679 427.38 228.495 427.308 228.287 427.164C228.087 427.012 227.827 426.848 227.507 426.672C227.195 426.488 226.799 426.324 226.319 426.18C225.847 426.028 225.255 425.952 224.543 425.952C223.719 425.952 222.963 426.096 222.275 426.384C221.587 426.672 220.995 427.092 220.499 427.644C220.003 428.196 219.615 428.868 219.335 429.66C219.063 430.452 218.927 431.352 218.927 432.36C218.927 433.376 219.071 434.284 219.359 435.084C219.647 435.876 220.043 436.548 220.547 437.1C221.051 437.644 221.643 438.06 222.323 438.348C223.003 438.636 223.735 438.78 224.519 438.78C224.999 438.78 225.427 438.756 225.803 438.708C226.187 438.652 226.539 438.568 226.859 438.456C227.179 438.336 227.479 438.188 227.759 438.012C228.047 437.836 228.331 437.62 228.611 437.364C228.771 437.22 228.931 437.148 229.091 437.148ZM244.921 426.06H239.533V441H236.737V426.06H231.337V423.72H244.921V426.06ZM253.193 438.78C253.825 438.78 254.357 438.712 254.789 438.576C255.229 438.432 255.585 438.236 255.857 437.988C256.129 437.732 256.325 437.436 256.445 437.1C256.573 436.756 256.637 436.384 256.637 435.984C256.637 435.552 256.577 435.164 256.457 434.82C256.337 434.476 256.141 434.188 255.869 433.956C255.597 433.716 255.241 433.532 254.801 433.404C254.369 433.276 253.837 433.212 253.205 433.212H250.133V438.78H253.193ZM253.205 430.992C254.293 430.992 255.225 431.112 256.001 431.352C256.785 431.592 257.429 431.924 257.933 432.348C258.437 432.764 258.805 433.26 259.037 433.836C259.277 434.412 259.397 435.032 259.397 435.696C259.397 436.504 259.257 437.236 258.977 437.892C258.705 438.54 258.305 439.096 257.777 439.56C257.249 440.024 256.597 440.38 255.821 440.628C255.053 440.876 254.177 441 253.193 441H247.325V423.72H250.133V430.992H253.205ZM286.405 423.72V441H283.933V429.156C283.933 428.964 283.937 428.756 283.945 428.532C283.961 428.3 283.981 428.068 284.005 427.836L278.449 438.096C278.233 438.52 277.901 438.732 277.453 438.732H277.057C276.601 438.732 276.269 438.52 276.061 438.096L270.421 427.812C270.445 428.044 270.461 428.276 270.469 428.508C270.485 428.74 270.493 428.956 270.493 429.156V441H268.021V423.72H270.121C270.369 423.72 270.561 423.744 270.697 423.792C270.833 423.832 270.957 423.964 271.069 424.188L276.613 434.232C276.733 434.464 276.845 434.704 276.949 434.952C277.061 435.192 277.161 435.44 277.249 435.696C277.345 435.44 277.445 435.188 277.549 434.94C277.661 434.684 277.777 434.44 277.897 434.208L283.357 424.188C283.469 423.964 283.593 423.832 283.729 423.792C283.865 423.744 284.057 423.72 284.305 423.72H286.405ZM306.733 432.36C306.733 433.64 306.525 434.82 306.109 435.9C305.693 436.98 305.105 437.912 304.345 438.696C303.593 439.472 302.685 440.08 301.621 440.52C300.565 440.96 299.389 441.18 298.093 441.18C296.805 441.18 295.629 440.96 294.565 440.52C293.509 440.08 292.601 439.472 291.841 438.696C291.081 437.912 290.493 436.98 290.077 435.9C289.661 434.82 289.453 433.64 289.453 432.36C289.453 431.08 289.661 429.9 290.077 428.82C290.493 427.74 291.081 426.808 291.841 426.024C292.601 425.24 293.509 424.628 294.565 424.188C295.629 423.748 296.805 423.528 298.093 423.528C299.389 423.528 300.565 423.748 301.621 424.188C302.685 424.628 303.593 425.24 304.345 426.024C305.105 426.808 305.693 427.74 306.109 428.82C306.525 429.9 306.733 431.08 306.733 432.36ZM303.865 432.36C303.865 431.368 303.729 430.476 303.457 429.684C303.193 428.892 302.809 428.22 302.305 427.668C301.809 427.116 301.205 426.692 300.493 426.396C299.781 426.1 298.981 425.952 298.093 425.952C297.213 425.952 296.417 426.1 295.705 426.396C294.993 426.692 294.385 427.116 293.881 427.668C293.377 428.22 292.989 428.892 292.717 429.684C292.445 430.476 292.309 431.368 292.309 432.36C292.309 433.36 292.445 434.256 292.717 435.048C292.989 435.84 293.377 436.512 293.881 437.064C294.385 437.608 294.993 438.028 295.705 438.324C296.417 438.612 297.213 438.756 298.093 438.756C298.981 438.756 299.781 438.612 300.493 438.324C301.205 438.028 301.809 437.608 302.305 437.064C302.809 436.512 303.193 435.84 303.457 435.048C303.729 434.256 303.865 433.36 303.865 432.36ZM315.678 438.78C316.31 438.78 316.842 438.712 317.274 438.576C317.714 438.432 318.07 438.236 318.342 437.988C318.614 437.732 318.81 437.436 318.93 437.1C319.058 436.756 319.122 436.384 319.122 435.984C319.122 435.552 319.062 435.164 318.942 434.82C318.822 434.476 318.626 434.188 318.354 433.956C318.082 433.716 317.726 433.532 317.286 433.404C316.854 433.276 316.322 433.212 315.69 433.212H312.618V438.78H315.678ZM315.69 430.992C316.778 430.992 317.71 431.112 318.486 431.352C319.27 431.592 319.914 431.924 320.418 432.348C320.922 432.764 321.29 433.26 321.522 433.836C321.762 434.412 321.882 435.032 321.882 435.696C321.882 436.504 321.742 437.236 321.462 437.892C321.19 438.54 320.79 439.096 320.262 439.56C319.734 440.024 319.082 440.38 318.306 440.628C317.538 440.876 316.662 441 315.678 441H309.81V423.72H321.282V425.916H312.618V430.992H315.69ZM339.114 423.72V441H336.306V429.528C336.306 429.144 336.314 428.744 336.33 428.328C336.354 427.912 336.398 427.464 336.462 426.984C336.31 427.4 336.146 427.788 335.97 428.148C335.802 428.5 335.634 428.812 335.466 429.084L328.146 440.124C328.082 440.228 328.006 440.332 327.918 440.436C327.838 440.54 327.742 440.636 327.63 440.724C327.526 440.804 327.414 440.872 327.294 440.928C327.174 440.976 327.046 441 326.91 441H324.81V423.72H327.63V435.18C327.63 435.564 327.618 435.968 327.594 436.392C327.578 436.808 327.538 437.248 327.474 437.712C327.626 437.304 327.786 436.924 327.954 436.572C328.13 436.212 328.298 435.9 328.458 435.636L335.778 424.596C335.842 424.492 335.914 424.388 335.994 424.284C336.082 424.18 336.178 424.088 336.282 424.008C336.394 423.92 336.51 423.852 336.63 423.804C336.75 423.748 336.878 423.72 337.014 423.72H339.114ZM356.768 441H353.948V425.916H348.764C348.652 428.1 348.496 429.996 348.296 431.604C348.096 433.212 347.856 434.58 347.576 435.708C347.304 436.836 346.992 437.756 346.64 438.468C346.296 439.18 345.912 439.736 345.488 440.136C345.072 440.536 344.624 440.808 344.144 440.952C343.664 441.096 343.156 441.168 342.62 441.168C341.612 441.168 341.108 440.988 341.108 440.628V438.852H341.996C342.292 438.852 342.588 438.8 342.884 438.696C343.188 438.584 343.48 438.352 343.76 438C344.04 437.648 344.308 437.14 344.564 436.476C344.82 435.804 345.052 434.908 345.26 433.788C345.468 432.668 345.644 431.288 345.788 429.648C345.94 428 346.052 426.024 346.124 423.72H356.768V441ZM366.748 438.78C367.38 438.78 367.912 438.712 368.344 438.576C368.784 438.432 369.14 438.236 369.412 437.988C369.684 437.732 369.88 437.436 370 437.1C370.128 436.756 370.192 436.384 370.192 435.984C370.192 435.552 370.132 435.164 370.012 434.82C369.892 434.476 369.696 434.188 369.424 433.956C369.152 433.716 368.796 433.532 368.356 433.404C367.924 433.276 367.392 433.212 366.76 433.212H363.688V438.78H366.748ZM366.76 430.992C367.848 430.992 368.78 431.112 369.556 431.352C370.34 431.592 370.984 431.924 371.488 432.348C371.992 432.764 372.36 433.26 372.592 433.836C372.832 434.412 372.952 435.032 372.952 435.696C372.952 436.504 372.812 437.236 372.532 437.892C372.26 438.54 371.86 439.096 371.332 439.56C370.804 440.024 370.152 440.38 369.376 440.628C368.608 440.876 367.732 441 366.748 441H360.88V423.72H363.688V430.992H366.76ZM389.903 423.72V441H387.095V433.308H378.419V441H375.599V423.72H378.419V431.28H387.095V423.72H389.903ZM410.257 432.36C410.257 433.64 410.049 434.82 409.633 435.9C409.217 436.98 408.629 437.912 407.869 438.696C407.117 439.472 406.209 440.08 405.145 440.52C404.089 440.96 402.913 441.18 401.617 441.18C400.329 441.18 399.153 440.96 398.089 440.52C397.033 440.08 396.125 439.472 395.365 438.696C394.605 437.912 394.017 436.98 393.601 435.9C393.185 434.82 392.977 433.64 392.977 432.36C392.977 431.08 393.185 429.9 393.601 428.82C394.017 427.74 394.605 426.808 395.365 426.024C396.125 425.24 397.033 424.628 398.089 424.188C399.153 423.748 400.329 423.528 401.617 423.528C402.913 423.528 404.089 423.748 405.145 424.188C406.209 424.628 407.117 425.24 407.869 426.024C408.629 426.808 409.217 427.74 409.633 428.82C410.049 429.9 410.257 431.08 410.257 432.36ZM407.389 432.36C407.389 431.368 407.253 430.476 406.981 429.684C406.717 428.892 406.333 428.22 405.829 427.668C405.333 427.116 404.729 426.692 404.017 426.396C403.305 426.1 402.505 425.952 401.617 425.952C400.737 425.952 399.941 426.1 399.229 426.396C398.517 426.692 397.909 427.116 397.405 427.668C396.901 428.22 396.513 428.892 396.241 429.684C395.969 430.476 395.833 431.368 395.833 432.36C395.833 433.36 395.969 434.256 396.241 435.048C396.513 435.84 396.901 436.512 397.405 437.064C397.909 437.608 398.517 438.028 399.229 438.324C399.941 438.612 400.737 438.756 401.617 438.756C402.505 438.756 403.305 438.612 404.017 438.324C404.729 438.028 405.333 437.608 405.829 437.064C406.333 436.512 406.717 435.84 406.981 435.048C407.253 434.256 407.389 433.36 407.389 432.36ZM424.121 438.732L424.109 441H413.333V423.72H424.109V425.988H416.153V431.196H422.513V433.392H416.153V438.732H424.121ZM446.806 441H443.986V425.916H435.958V441H433.138V423.72H446.806V441ZM456.28 432.528C456.904 432.528 457.452 432.448 457.924 432.288C458.404 432.128 458.8 431.904 459.112 431.616C459.432 431.32 459.672 430.964 459.832 430.548C459.992 430.132 460.072 429.668 460.072 429.156C460.072 428.652 459.992 428.2 459.832 427.8C459.68 427.4 459.448 427.06 459.136 426.78C458.824 426.5 458.428 426.288 457.948 426.144C457.476 425.992 456.92 425.916 456.28 425.916H453.712V432.528H456.28ZM456.28 423.72C457.408 423.72 458.384 423.852 459.208 424.116C460.04 424.38 460.724 424.752 461.26 425.232C461.804 425.704 462.208 426.276 462.472 426.948C462.736 427.612 462.868 428.348 462.868 429.156C462.868 429.98 462.728 430.736 462.448 431.424C462.168 432.104 461.752 432.692 461.2 433.188C460.648 433.676 459.96 434.06 459.136 434.34C458.32 434.612 457.368 434.748 456.28 434.748H453.712V441H450.904V423.72H456.28ZM479.856 423.72V441H477.048V429.528C477.048 429.144 477.056 428.744 477.072 428.328C477.096 427.912 477.14 427.464 477.204 426.984C477.052 427.4 476.888 427.788 476.712 428.148C476.544 428.5 476.376 428.812 476.208 429.084L468.888 440.124C468.824 440.228 468.748 440.332 468.66 440.436C468.58 440.54 468.484 440.636 468.372 440.724C468.268 440.804 468.156 440.872 468.036 440.928C467.916 440.976 467.788 441 467.652 441H465.552V423.72H468.372V435.18C468.372 435.564 468.36 435.968 468.336 436.392C468.32 436.808 468.28 437.248 468.216 437.712C468.368 437.304 468.528 436.924 468.696 436.572C468.872 436.212 469.04 435.9 469.2 435.636L476.52 424.596C476.584 424.492 476.656 424.388 476.736 424.284C476.824 424.18 476.92 424.088 477.024 424.008C477.136 423.92 477.252 423.852 477.372 423.804C477.492 423.748 477.62 423.72 477.756 423.72H479.856ZM497.51 441H494.69V425.916H489.506C489.394 428.1 489.238 429.996 489.038 431.604C488.838 433.212 488.598 434.58 488.318 435.708C488.046 436.836 487.734 437.756 487.382 438.468C487.038 439.18 486.654 439.736 486.23 440.136C485.814 440.536 485.366 440.808 484.886 440.952C484.406 441.096 483.898 441.168 483.362 441.168C482.354 441.168 481.85 440.988 481.85 440.628V438.852H482.738C483.034 438.852 483.33 438.8 483.626 438.696C483.93 438.584 484.222 438.352 484.502 438C484.782 437.648 485.05 437.14 485.306 436.476C485.562 435.804 485.794 434.908 486.002 433.788C486.21 432.668 486.386 431.288 486.53 429.648C486.682 428 486.794 426.024 486.866 423.72H497.51V441ZM517.858 432.36C517.858 433.64 517.65 434.82 517.234 435.9C516.818 436.98 516.23 437.912 515.47 438.696C514.718 439.472 513.81 440.08 512.746 440.52C511.69 440.96 510.514 441.18 509.218 441.18C507.93 441.18 506.754 440.96 505.69 440.52C504.634 440.08 503.726 439.472 502.966 438.696C502.206 437.912 501.618 436.98 501.202 435.9C500.786 434.82 500.578 433.64 500.578 432.36C500.578 431.08 500.786 429.9 501.202 428.82C501.618 427.74 502.206 426.808 502.966 426.024C503.726 425.24 504.634 424.628 505.69 424.188C506.754 423.748 507.93 423.528 509.218 423.528C510.514 423.528 511.69 423.748 512.746 424.188C513.81 424.628 514.718 425.24 515.47 426.024C516.23 426.808 516.818 427.74 517.234 428.82C517.65 429.9 517.858 431.08 517.858 432.36ZM514.99 432.36C514.99 431.368 514.854 430.476 514.582 429.684C514.318 428.892 513.934 428.22 513.43 427.668C512.934 427.116 512.33 426.692 511.618 426.396C510.906 426.1 510.106 425.952 509.218 425.952C508.338 425.952 507.542 426.1 506.83 426.396C506.118 426.692 505.51 427.116 505.006 427.668C504.502 428.22 504.114 428.892 503.842 429.684C503.57 430.476 503.434 431.368 503.434 432.36C503.434 433.36 503.57 434.256 503.842 435.048C504.114 435.84 504.502 436.512 505.006 437.064C505.51 437.608 506.118 438.028 506.83 438.324C507.542 438.612 508.338 438.756 509.218 438.756C510.106 438.756 510.906 438.612 511.618 438.324C512.33 438.028 512.934 437.608 513.43 437.064C513.934 436.512 514.318 435.84 514.582 435.048C514.854 434.256 514.99 433.36 514.99 432.36ZM543.332 441H541.472C541.064 441 540.712 440.912 540.416 440.736C540.128 440.552 539.896 440.308 539.72 440.004L535.784 434.22C535.568 433.876 535.324 433.632 535.052 433.488C534.78 433.336 534.44 433.26 534.032 433.26H532.112V441H529.484V433.26H527.576C527.168 433.26 526.828 433.336 526.556 433.488C526.284 433.632 526.04 433.876 525.824 434.22L521.888 440.004C521.712 440.308 521.476 440.552 521.18 440.736C520.892 440.912 520.544 441 520.136 441H518.264L523.076 433.608C523.34 433.152 523.628 432.788 523.94 432.516C524.26 432.244 524.624 432.04 525.032 431.904C524.688 431.768 524.392 431.588 524.144 431.364C523.904 431.132 523.668 430.844 523.436 430.5L518.708 423.72H520.916C521.196 423.72 521.46 423.792 521.708 423.936C521.956 424.08 522.152 424.28 522.296 424.536L526.208 430.236C526.44 430.588 526.688 430.824 526.952 430.944C527.216 431.056 527.52 431.112 527.864 431.112H529.484V423.72H532.112V431.112H533.744C534.088 431.112 534.392 431.056 534.656 430.944C534.92 430.824 535.168 430.588 535.4 430.236L539.3 424.536C539.452 424.28 539.648 424.08 539.888 423.936C540.136 423.792 540.404 423.72 540.692 423.72H542.888L538.172 430.5C537.94 430.844 537.7 431.132 537.452 431.364C537.212 431.588 536.916 431.768 536.564 431.904C536.972 432.04 537.336 432.244 537.656 432.516C537.976 432.788 538.268 433.152 538.532 433.608L543.332 441ZM556.285 438.732L556.273 441H545.497V423.72H556.273V425.988H548.317V431.196H554.677V433.392H548.317V438.732H556.285ZM573.629 423.72V441H570.821V433.308H562.145V441H559.325V423.72H562.145V431.28H570.821V423.72H573.629ZM592.051 423.72V441H589.243V429.528C589.243 429.144 589.251 428.744 589.267 428.328C589.291 427.912 589.335 427.464 589.399 426.984C589.247 427.4 589.083 427.788 588.907 428.148C588.739 428.5 588.571 428.812 588.403 429.084L581.083 440.124C581.019 440.228 580.943 440.332 580.855 440.436C580.775 440.54 580.679 440.636 580.567 440.724C580.463 440.804 580.351 440.872 580.231 440.928C580.111 440.976 579.983 441 579.847 441H577.747V423.72H580.567V435.18C580.567 435.564 580.555 435.968 580.531 436.392C580.515 436.808 580.475 437.248 580.411 437.712C580.563 437.304 580.723 436.924 580.891 436.572C581.067 436.212 581.235 435.9 581.395 435.636L588.715 424.596C588.779 424.492 588.851 424.388 588.931 424.284C589.019 424.18 589.115 424.088 589.219 424.008C589.331 423.92 589.447 423.852 589.567 423.804C589.687 423.748 589.815 423.72 589.951 423.72H592.051ZM606.957 438.732L606.945 441H596.169V423.72H606.945V425.988H598.989V431.196H605.349V433.392H598.989V438.732H606.957Z" fill="black"/>
</g>
<defs>
<filter id="filter0_d_1302_783" x="0" y="0" width="732" height="832" filterUnits="userSpaceOnUse" color-interpolation-filters="sRGB">
<feFlood flood-opacity="0" result="BackgroundImageFix"/>
<feColorMatrix in="SourceAlpha" type="matrix" values="0 0 0 0 0 0 0 0 0 0 0 0 0 0 0 0 0 0 127 0" result="hardAlpha"/>
<feOffset dy="16"/>
<feGaussianBlur stdDeviation="8"/>
<feComposite in2="hardAlpha" operator="out"/>
<feColorMatrix type="matrix" values="0 0 0 0 0 0 0 0 0 0 0 0 0 0 0 0 0 0 0.25 0"/>
<feBlend mode="normal" in2="BackgroundImageFix" result="effect1_dropShadow_1302_783"/>
<feBlend mode="normal" in="SourceGraphic" in2="effect1_dropShadow_1302_783" result="shape"/>
</filter>
</defs>
</svg>
